<svg xmlns="http://www.w3.org/2000/svg" width="256" height="256" viewBox="0 0 256 256" fill="none">
  <defs>
    <!-- Match homepage vibe: cyan → blue → purple -->
    <linearGradient id="g" x1="44" y1="44" x2="212" y2="212" gradientUnits="userSpaceOnUse">
      <stop stop-color="#BFF6FF"/>
      <stop offset="0.55" stop-color="#2AA8FF"/>
      <stop offset="1" stop-color="#6C5BFF"/>
    </linearGradient>

    <filter id="s" x="-20%" y="-20%" width="140%" height="140%">
      <feDropShadow dx="0" dy="10" stdDeviation="12" flood-color="#000000" flood-opacity="0.35"/>
    </filter>
  </defs>

  <!-- rounded square -->
  <rect x="28" y="28" width="200" height="200" rx="44"
        fill="#11161C"
        stroke="rgba(255,255,255,0.08)"
        stroke-width="2"
        filter="url(#s)"/>

  <!-- stylized "S" mark (nudged RIGHT a bit) -->
  <!-- was translate(-6,2); now translate(-2,2) => moves ~4px to the right -->
  <g transform="translate(-2,2)">
    <path d="M164 78c-16-12-44-14-64-2-14 8-18 24-6 34 9 7 22 8 36 10 22 3 40 10 40 32 0 26-26 46-60 46-18 0-38-5-52-16l14-18c10 8 24 12 38 12 18 0 32-9 32-21 0-11-11-14-26-16-24-3-50-8-50-38 0-26 26-46 58-46 20 0 38 5 52 14l-12 19z"
          fill="url(#g)"/>
  </g>
</svg>
